<?xml version="1.0"?>
<svg version="1.1" xmlns="http://www.w3.org/2000/svg" width="80" height="51" style=""><path fill="#0fffff" d="M36.888,29.436q0,0.256-0.656,0.256t-1.312-0.656t-0.656-1.6t0.576-1.712q1.216-1.664,4.064-2.368q2.048-0.512,4.096-0.512l0.256,0q0.288,0,1.568,0.096q-0.064-0.416,0.336-0.784t0.912-0.368q0.96,0,0.928,1.376q3.456,0.608,3.648,1.856q0.032,0.288,0.032,0.48q0,0.64-0.368,0.64t-0.24-0.768q-0.8-1.184-3.168-1.664q-0.576,2.592-6.016,11.264q-3.616,5.696-8.416,9.536q-5.504,4.352-10.368,4.352q-2.976,0-4.416-1.504t-1.44-3.344t0.704-3.152q1.696-3.264,4.896-5.088q2.368-1.376,4.384-1.376q2.176,0,3.408,1.056t1.232,2.656q0,1.728-1.28,3.136q-0.8,0.896-1.28,0.896q-0.128,0-0.128-0.112t0.096-0.304q1.152-1.696,1.152-3.152t-0.8-2.384q-0.928-0.992-2.512-0.992t-3.536,1.28q-2.4,1.568-3.936,4.704q-0.8,1.568-0.8,3.248t1.248,2.72t3.36,1.04q8.128,0,16.992-14.272q5.312-8.512,5.44-10.432q-1.92-0.096-2.016-0.096q-1.504,0-3.856,0.832t-3.056,2.048q-0.288,0.48-0.288,1.056t0.608,1.28t0.608,0.832z M72.98944,35.548l3.104-0.064q1.152,0,1.152,0.16q0,0.416-4.672,0.736q-2.976,5.824-2.976,7.936q0,1.472,0.928,1.472q0.352,0,0.88-0.432t0.64-0.432t0.112,0.16q-0.16,0.576-0.976,0.96t-1.376,0.384t-0.88-0.064q-0.768-0.288-0.768-1.856q0-3.232,2.464-8.224l-3.84,0.096q-4.288,4.192-8.608,7.36q-6.464,4.704-10.112,4.704q-0.224,0-0.448-0.032q-4.928-0.416-4.928-5.056q0-2.752,1.728-5.824q2.304-4.096,6.304-6.992t7.168-2.896t3.168,2.336q0,1.568-0.96,3.488t-1.952,2.432q-0.096,0.032-0.208,0.032t-0.112-0.064l1.056-1.728q1.088-1.696,1.088-2.976t-0.56-2.064t-1.776-0.784q-2.496,0-5.968,2.784t-5.28,6.848t-1.808,6.336q0,3.424,3.488,3.424q3.328,0,9.024-4.288q2.528-1.888,8.224-7.136q-1.12,0.064-2.08,0.224q-2.048,0.384-1.92-0.128q0.128-1.184,1.216-1.184q2.112,0.256,3.552,0.256q2.752-2.528,8.224-8.288q3.68-3.872,4.48-3.872q0.352,0,0.352,0.544t-0.288,1.696t-0.64,1.408q-0.736,0.512-1.376,1.392t-1.824,3.296t-2.016,3.92z M75.54944,27.74l-8.192,7.68l1.888,0q0.672,0.032,1.664,0.032q0.928-1.824,4.64-7.712z"/><path fill="#" d=""/></svg>
